<?xml version="1.0" encoding="UTF-8" standalone="no"?>
<!-- Generator: Adobe Illustrator 25.4.1, SVG Export Plug-In . SVG Version: 6.00 Build 0)  -->

<svg
   version="1.1"
   id="Capa_1"
   x="0px"
   y="0px"
   viewBox="0 0 306.44 335.29"
   style="enable-background:new 0 0 306.44 335.29;"
   xml:space="preserve"
   sodipodi:docname="MCC_SoloLOBO_alt.svg"
   inkscape:export-filename="..\..\..\MCC_SoloLOBO2.png"
   inkscape:export-xdpi="96"
   inkscape:export-ydpi="96"
   inkscape:version="1.2.2 (732a01da63, 2022-12-09)"
   xmlns:inkscape="http://www.inkscape.org/namespaces/inkscape"
   xmlns:sodipodi="http://sodipodi.sourceforge.net/DTD/sodipodi-0.dtd"
   xmlns="http://www.w3.org/2000/svg"
   xmlns:svg="http://www.w3.org/2000/svg"><defs
   id="defs33">
	
	
	
	
	
	
	
	
	
	
	
</defs><sodipodi:namedview
   id="namedview31"
   pagecolor="#ffffff"
   bordercolor="#000000"
   borderopacity="0.25"
   inkscape:showpageshadow="2"
   inkscape:pageopacity="0.0"
   inkscape:pagecheckerboard="0"
   inkscape:deskcolor="#d1d1d1"
   showgrid="false"
   inkscape:zoom="2.4963464"
   inkscape:cx="155.42715"
   inkscape:cy="173.05291"
   inkscape:window-width="1920"
   inkscape:window-height="1017"
   inkscape:window-x="-8"
   inkscape:window-y="-8"
   inkscape:window-maximized="1"
   inkscape:current-layer="Capa_1" />
<style
   type="text/css"
   id="style2">
	.st0{fill:#C1272D;}
	.st1{fill:none;stroke:#C1272D;stroke-width:7;stroke-miterlimit:10;}
	.st2{fill:#FFFFFF;}
	.st3{fill:#6E210C;}
	.st4{fill:#C37552;}
	.st5{fill:none;stroke:#FAAF78;stroke-miterlimit:10;}
	.st6{fill:#ECE7DF;}
	.st7{fill:#614232;}
	.st8{fill:#F6BCC3;}
	.st9{fill:#D1BBB6;}
	.st10{fill:none;stroke:#000000;stroke-width:21;stroke-linecap:round;stroke-miterlimit:10;}
	.st11{fill:url(#SVGID_1_);}
	.st12{fill:url(#SVGID_00000085935700968649462980000007678082115726847903_);}
	.st13{fill:url(#SVGID_00000138552507062444592410000013577709612777664436_);}
	.st14{fill:#0D1E3C;}
	.st15{fill:#701705;}
	.st16{fill:#E8A18C;}
	.st17{fill:#693020;}
	.st18{fill:#666666;}
	.st19{fill:#808080;}
	.st20{fill:none;}
	.st21{opacity:0.5;fill:#E8A18C;}
	.st22{fill:#8149A6;}
	.st23{fill:#030526;}
	.st24{fill:#D98BB6;}
	.st25{fill:url(#SVGID_00000119081429133980556900000003997883659898528172_);}
	.st26{fill:url(#SVGID_00000064317594691355567090000007051928427570108039_);}
	.st27{fill:#0000FF;}
	.st28{fill:none;stroke:#0000FF;stroke-width:7;stroke-miterlimit:10;}
	.st29{fill:none;stroke:#0000FF;stroke-width:5;stroke-miterlimit:10;}
	.st30{fill:#032340;}
	.st31{fill:none;stroke:#032340;stroke-width:11;stroke-miterlimit:10;}
	.st32{fill:#A9C6D9;}
	.st33{fill:#3D5473;}
	.st34{fill:none;stroke:#3D5473;stroke-width:5;stroke-miterlimit:10;}
	.st35{fill:none;stroke:#3D5473;stroke-width:7;stroke-miterlimit:10;}
	.st36{fill:none;stroke:#C1272D;stroke-width:11;stroke-miterlimit:10;}
	.st37{fill:#84A4BF;}
	.st38{fill:none;stroke:#F15A24;stroke-width:7;stroke-miterlimit:10;}
	.st39{fill:#FF00FF;}
	.st40{fill:#B7CAD5;}
	.st41{fill:#99ADBD;}
	.st42{fill:#F15A24;}
	.st43{fill:#333333;}
	.st44{fill:#B57F22;}
</style>
<path
   class="st40"
   d="m 302.55,217.44 c 0.04,-0.06 0.08,-0.11 0.12,-0.17 l -0.05,-0.08 c 0.09,-0.55 0.06,-1.12 -0.11,-1.66 l -21.29,-69.19 c -0.16,-0.53 -0.2,-1.1 -0.1,-1.65 8.66,-50.35 11.48,-97.7 0.94,-138.21 -0.55,-2.11 -2.83,-3.28 -4.84,-2.43 -29,12.23 -54.39,29.53 -75.57,52.73 -0.87,0.95 -2.18,1.36 -3.44,1.07 -14.65,-3.36 -29.39,-5.04 -44.22,-5.05 -0.26,0 -0.51,-0.01 -0.77,-0.01 -0.26,0 -0.51,0.01 -0.77,0.01 -14.83,0 -29.57,1.68 -44.22,5.05 -1.26,0.29 -2.57,-0.12 -3.44,-1.07 C 83.6,33.57 58.22,16.27 29.22,4.04 27.21,3.19 24.93,4.36 24.38,6.47 c -10.54,40.51 -7.72,87.87 0.94,138.21 0.09,0.55 0.06,1.12 -0.1,1.65 l -21.29,69.2 c -0.17,0.54 -0.2,1.11 -0.11,1.66 l -0.05,0.08 c 0.04,0.06 0.08,0.11 0.12,0.17 0.11,0.46 0.29,0.9 0.58,1.29 2.54,3.42 5.14,6.77 7.79,10.07 15.9,20.51 34.79,39.09 56.7,55.74 23.17,17.94 48.97,33.15 77.42,45.61 2.18,0.95 4.51,1.4 6.84,1.36 2.33,0.04 4.66,-0.41 6.84,-1.36 28.44,-12.47 54.25,-27.68 77.42,-45.61 21.91,-16.65 40.81,-35.23 56.7,-55.74 2.65,-3.3 5.25,-6.65 7.79,-10.07 0.28,-0.39 0.47,-0.83 0.58,-1.29 z"
   id="path4"
   style="fill:#f4e3d7;opacity:1" /><g
   id="g8"
   style="fill:#a05a2c;opacity:0.5">
		<path
   class="st41"
   d="m 149.72,198.57 c 1.2,-0.36 2.89,-0.73 3.6,-0.73 0.02,0 0.05,0 0.07,0 l 0.12,0.01 0.12,-0.01 c 0.65,-0.04 2.43,0.35 3.67,0.73 1.66,0.5 3.33,1.18 4.88,1.85 l 18.92,8.09 H 283 L 256.47,162.56 199.99,64.71 c -0.29,-0.51 -1.06,-0.5 -1.34,0.02 L 153.22,145.6 107.79,64.73 c -0.28,-0.51 -1.05,-0.52 -1.34,-0.02 l -56.69,98.22 -26.32,45.59 h 102.49 l 18.92,-8.09 c 1.54,-0.67 3.22,-1.36 4.87,-1.86 z"
   id="path6"
   style="fill:#a05a2c" />
	</g><polygon
   class="st33"
   points="272.36,21.48 213.27,81.31 231.88,115.48 260.34,129.06 "
   id="polygon10"
   style="fill:#a05a2c" /><polygon
   class="st33"
   points="34.46,21.48 93.55,81.31 74.93,115.48 46.47,129.06 "
   id="polygon12"
   style="fill:#a05a2c" /><circle
   class="st33"
   cx="217.46001"
   cy="188.74001"
   r="16.15"
   id="circle14"
   style="fill:#a05a2c" /><polygon
   class="st30"
   points="303.77,209.85 301.25,223.61 244.18,206.04 "
   id="polygon16"
   style="fill:#483e37;opacity:0.99999999" /><circle
   class="st33"
   cx="89.349998"
   cy="188.74001"
   r="16.15"
   id="circle18"
   style="fill:#a05a2c" /><polygon
   class="st30"
   points="5.57,223.61 3.04,209.85 62.63,206.04 "
   id="polygon20"
   style="fill:#483e37;opacity:0.99999999" /><path
   class="st33"
   d="m 206.27,248.32 -0.05,-0.24 v 0 c -0.34,-1.51 -0.9,-4.49 -1.54,-7.94 -2.1,-11.19 -3.96,-20.74 -5.38,-24.31 -0.07,-0.17 -0.15,-0.33 -0.22,-0.49 l -3.57,-10.86 -0.59,5.41 c -2.77,-2.36 -6.26,-4.01 -9.74,-5.5 l -20.86,-8.93 c -1.7,-0.73 -3.54,-1.48 -5.45,-2.05 -0.56,-0.17 -3.44,-1 -5.34,-0.96 -1.92,-0.02 -4.78,0.79 -5.34,0.95 -1.91,0.57 -3.75,1.33 -5.45,2.06 l -20.86,8.93 c -3.56,1.52 -7.14,3.21 -9.93,5.66 l -0.61,-5.57 -3.97,12.06 0.12,0.01 c -1.38,4.03 -3.14,13.09 -5.11,23.6 -0.65,3.44 -1.21,6.41 -1.54,7.92 l -0.05,0.22 c -2.02,9.05 -4.11,18.41 -2.19,28.01 2.04,10.24 11.94,16.49 19.2,20.31 l 2.05,1.08 c 9.89,5.22 21.1,11.14 32.93,11.61 h 1.64 c 11.71,-0.46 22.92,-6.38 32.81,-11.6 l 2.06,-1.08 c 3.79,-1.99 8.29,-4.65 12.02,-8.19 0.93,-0.78 1.83,-1.68 2.68,-2.74 l -0.07,-0.06 c 2.18,-2.67 3.86,-5.74 4.57,-9.32 1.89,-9.59 -0.2,-18.94 -2.22,-27.99 z m -51.99,55.61 h -1.43 c -10,-0.4 -20.13,-5.51 -29.18,-10.28 0.96,0.05 1.92,0.08 2.85,0.08 3.93,0 7.67,-0.44 11.16,-1.32 3.36,-0.85 11.58,-3.44 16.13,-9.27 4.55,5.84 12.77,8.43 16.13,9.27 3.49,0.88 7.23,1.32 11.16,1.32 0.72,0 1.45,-0.02 2.18,-0.05 -9.03,4.77 -19.13,9.86 -29,10.25 z m 48.9,-28.67 c -0.71,3.55 -2.79,6.57 -5.44,9.12 -2.21,1.8 -5.07,2.84 -9.19,3.43 -6.31,0.9 -12.13,0.69 -17.3,-0.61 -5.92,-1.49 -10.91,-4.3 -13.32,-7.51 0,0 -0.1,-0.14 -0.29,-0.54 -0.62,-1.32 -0.99,-2.8 -1.13,-4.4 0.01,-0.09 0.02,-0.18 0.02,-0.27 l 0.03,-5.63 c 2.08,-0.59 4.06,-1.69 5.87,-2.9 4.91,-3.27 9.23,-7.59 11.81,-12.9 1.11,-2.28 1.89,-4.93 1.1,-7.35 -0.09,-0.27 -0.19,-0.52 -0.31,-0.77 -1.29,-2.67 -4.32,-4.22 -7.19,-5.21 -9.91,-3.42 -21.13,-3.4 -30.71,0.88 -1.38,0.62 -2.74,1.33 -3.82,2.38 -4.06,3.93 -1.01,10.25 1.73,14 2.78,3.81 6.37,7 10.36,9.5 1.78,1.11 3.7,2.1 5.73,2.56 l -0.05,5.29 v 0.08 0.08 c 0,0.08 0.02,0.16 0.02,0.24 -0.13,1.45 -0.45,2.82 -0.98,4.05 -0.29,0.67 -0.44,0.87 -0.44,0.88 -2.41,3.21 -7.39,6.02 -13.32,7.51 -5.17,1.3 -10.99,1.51 -17.3,0.61 -5.48,-0.78 -8.72,-2.36 -11.19,-5.47 l -0.29,0.23 c -1.82,-2.14 -3.2,-4.56 -3.75,-7.31 -1.69,-8.48 0.27,-17.28 2.17,-25.78 l 0.05,-0.23 c 0.36,-1.6 0.9,-4.47 1.58,-8.1 1.49,-7.95 3.75,-19.95 5.09,-23.33 1.62,-4.08 6.45,-6.42 11.24,-8.48 l 20.86,-8.93 c 1.56,-0.67 3.23,-1.35 4.89,-1.85 1.2,-0.36 2.89,-0.73 3.6,-0.73 0.02,0 0.05,0 0.07,0 l 0.12,0.01 0.12,-0.01 c 0.65,-0.04 2.43,0.35 3.67,0.73 1.66,0.5 3.33,1.18 4.88,1.85 l 20.86,8.93 c 4.8,2.05 9.62,4.4 11.24,8.48 1.34,3.38 3.6,15.37 5.09,23.31 0.68,3.64 1.23,6.52 1.58,8.12 l 0.05,0.24 c 1.92,8.54 3.89,17.33 2.19,25.8 z"
   id="path22"
   style="fill:#a05a2c" /><polygon
   class="st30"
   points="153.22,134.47 200,53.58 256.42,162.46 199.99,75.56 153.22,156.45 106.45,75.56 49.81,162.82 106.44,53.58 "
   id="polygon24"
   style="fill:#483e37;opacity:0.99999999" /><path
   class="st33"
   d="m 153.51,335.29 c -0.1,0 -0.2,0 -0.29,0 -2.88,0.07 -5.71,-0.52 -8.35,-1.68 C 116.3,321.09 89.99,305.58 66.66,287.53 44.63,270.8 25.32,251.81 9.28,231.12 6.56,227.73 3.91,224.31 1.45,220.99 0.94,220.3 0.56,219.51 0.31,218.64 0.22,218.38 0.15,218.1 0.1,217.81 c -0.19,-1.12 -0.11,-2.29 0.22,-3.38 L 21.61,145.24 C 11.49,86.54 11.21,42.12 20.73,5.54 c 0.54,-2.08 1.96,-3.82 3.88,-4.77 1.9,-0.94 4.11,-1.01 6.07,-0.19 30.05,12.67 55.9,30.69 76.82,53.58 14.81,-3.39 29.93,-5.11 44.95,-5.12 l 0.75,-0.01 0.82,0.01 c 14.99,0 30.12,1.73 44.92,5.12 20.92,-22.88 46.76,-40.91 76.82,-53.58 1.95,-0.82 4.16,-0.75 6.07,0.19 1.92,0.95 3.34,2.69 3.88,4.77 9.52,36.58 9.24,81 -0.87,139.8 l 21.28,69.1 c 0.33,1.09 0.41,2.26 0.22,3.39 -0.05,0.29 -0.12,0.57 -0.21,0.83 -0.25,0.87 -0.63,1.66 -1.14,2.34 -2.46,3.31 -5.11,6.74 -7.87,10.18 -16,20.64 -35.31,39.63 -57.36,56.38 -23.3,18.04 -49.62,33.54 -78.19,46.06 -2.55,1.1 -5.26,1.67 -8.06,1.67 z m -0.29,-7.54 h 0.07 c 1.8,0.03 3.6,-0.32 5.26,-1.05 28,-12.27 53.78,-27.46 76.62,-45.14 21.56,-16.38 40.4,-34.9 56.03,-55.07 2.72,-3.39 5.29,-6.71 7.68,-9.93 l 0.01,-0.02 -21.26,-69.09 c -0.34,-1.09 -0.41,-2.27 -0.22,-3.4 9.91,-57.6 10.24,-100.96 1.05,-136.44 -28.98,12.25 -53.89,29.65 -74.03,51.7 -1.78,1.95 -4.49,2.8 -7.06,2.2 -14.29,-3.28 -28.89,-4.95 -43.38,-4.95 l -0.79,-0.01 -0.72,0.01 c -14.52,0 -29.12,1.67 -43.41,4.95 -2.58,0.59 -5.28,-0.25 -7.06,-2.21 C 81.87,37.26 56.96,19.86 27.97,7.61 c -9.19,35.47 -8.85,78.84 1.05,136.44 0.19,1.13 0.12,2.3 -0.22,3.4 L 7.55,216.56 c 0,0 0,0 0,0 2.39,3.22 4.97,6.54 7.65,9.88 15.67,20.22 34.51,38.74 56.04,55.1 22.87,17.7 48.65,32.89 76.65,45.16 1.65,0.73 3.45,1.08 5.26,1.05 z M 7.5,216.48 c 0,0 0,0 0,0 0,0 0,0 0,0 z m 291.97,-1.2 c -0.03,0.05 -0.07,0.1 -0.1,0.14 z M 278.42,7.42 v 0 c 0,0 0,0.01 0,0 z"
   id="path26"
   style="fill:#a05a2c" />
</svg>
