<?xml version="1.0" encoding="utf-8"?>
<!-- Generator: Adobe Illustrator 25.4.1, SVG Export Plug-In . SVG Version: 6.00 Build 0)  -->
<svg version="1.1" id="Capa_1" xmlns="http://www.w3.org/2000/svg" xmlns:xlink="http://www.w3.org/1999/xlink" x="0px" y="0px"
	 viewBox="0 0 306.44 335.29" style="enable-background:new 0 0 306.44 335.29;" xml:space="preserve">
<style type="text/css">
	.st0{fill:#C1272D;}
	.st1{fill:none;stroke:#C1272D;stroke-width:7;stroke-miterlimit:10;}
	.st2{fill:#FFFFFF;}
	.st3{fill:#6E210C;}
	.st4{fill:#C37552;}
	.st5{fill:none;stroke:#FAAF78;stroke-miterlimit:10;}
	.st6{fill:#ECE7DF;}
	.st7{fill:#614232;}
	.st8{fill:#F6BCC3;}
	.st9{fill:#D1BBB6;}
	.st10{fill:none;stroke:#000000;stroke-width:21;stroke-linecap:round;stroke-miterlimit:10;}
	.st11{fill:url(#SVGID_1_);}
	.st12{fill:url(#SVGID_00000085935700968649462980000007678082115726847903_);}
	.st13{fill:url(#SVGID_00000138552507062444592410000013577709612777664436_);}
	.st14{fill:#0D1E3C;}
	.st15{fill:#701705;}
	.st16{fill:#E8A18C;}
	.st17{fill:#693020;}
	.st18{fill:#666666;}
	.st19{fill:#808080;}
	.st20{fill:none;}
	.st21{opacity:0.5;fill:#E8A18C;}
	.st22{fill:#8149A6;}
	.st23{fill:#030526;}
	.st24{fill:#D98BB6;}
	.st25{fill:url(#SVGID_00000119081429133980556900000003997883659898528172_);}
	.st26{fill:url(#SVGID_00000064317594691355567090000007051928427570108039_);}
	.st27{fill:#0000FF;}
	.st28{fill:none;stroke:#0000FF;stroke-width:7;stroke-miterlimit:10;}
	.st29{fill:none;stroke:#0000FF;stroke-width:5;stroke-miterlimit:10;}
	.st30{fill:#032340;}
	.st31{fill:none;stroke:#032340;stroke-width:11;stroke-miterlimit:10;}
	.st32{fill:#A9C6D9;}
	.st33{fill:#3D5473;}
	.st34{fill:none;stroke:#3D5473;stroke-width:5;stroke-miterlimit:10;}
	.st35{fill:none;stroke:#3D5473;stroke-width:7;stroke-miterlimit:10;}
	.st36{fill:none;stroke:#C1272D;stroke-width:11;stroke-miterlimit:10;}
	.st37{fill:#84A4BF;}
	.st38{fill:none;stroke:#F15A24;stroke-width:7;stroke-miterlimit:10;}
	.st39{fill:#FF00FF;}
	.st40{fill:#B7CAD5;}
	.st41{fill:#99ADBD;}
	.st42{fill:#F15A24;}
	.st43{fill:#333333;}
	.st44{fill:#B57F22;}
</style>
<g>
	<path class="st40" d="M302.55,217.44c0.04-0.06,0.08-0.11,0.12-0.17l-0.05-0.08c0.09-0.55,0.06-1.12-0.11-1.66l-21.29-69.19
		c-0.16-0.53-0.2-1.1-0.1-1.65c8.66-50.35,11.48-97.7,0.94-138.21c-0.55-2.11-2.83-3.28-4.84-2.43
		c-29,12.23-54.39,29.53-75.57,52.73c-0.87,0.95-2.18,1.36-3.44,1.07c-14.65-3.36-29.39-5.04-44.22-5.05
		c-0.26,0-0.51-0.01-0.77-0.01c-0.26,0-0.51,0.01-0.77,0.01c-14.83,0-29.57,1.68-44.22,5.05c-1.26,0.29-2.57-0.12-3.44-1.07
		C83.6,33.57,58.22,16.27,29.22,4.04c-2.01-0.85-4.29,0.32-4.84,2.43c-10.54,40.51-7.72,87.87,0.94,138.21
		c0.09,0.55,0.06,1.12-0.1,1.65L3.93,215.53c-0.17,0.54-0.2,1.11-0.11,1.66l-0.05,0.08c0.04,0.06,0.08,0.11,0.12,0.17
		c0.11,0.46,0.29,0.9,0.58,1.29c2.54,3.42,5.14,6.77,7.79,10.07c15.9,20.51,34.79,39.09,56.7,55.74
		c23.17,17.94,48.97,33.15,77.42,45.61c2.18,0.95,4.51,1.4,6.84,1.36c2.33,0.04,4.66-0.41,6.84-1.36
		c28.44-12.47,54.25-27.68,77.42-45.61c21.91-16.65,40.81-35.23,56.7-55.74c2.65-3.3,5.25-6.65,7.79-10.07
		C302.25,218.34,302.44,217.9,302.55,217.44z"/>
	<g>
		<path class="st41" d="M149.72,198.57c1.2-0.36,2.89-0.73,3.6-0.73c0.02,0,0.05,0,0.07,0l0.12,0.01l0.12-0.01
			c0.65-0.04,2.43,0.35,3.67,0.73c1.66,0.5,3.33,1.18,4.88,1.85l18.92,8.09h101.9l-26.53-45.95l-56.48-97.85
			c-0.29-0.51-1.06-0.5-1.34,0.02l-45.43,80.87l-45.43-80.87c-0.28-0.51-1.05-0.52-1.34-0.02l-56.69,98.22l-26.32,45.59h102.49
			l18.92-8.09C146.39,199.76,148.07,199.07,149.72,198.57z"/>
	</g>
	<polygon class="st33" points="231.88,115.48 260.34,129.06 272.36,21.48 213.27,81.31 	"/>
	<polygon class="st33" points="74.93,115.48 46.47,129.06 34.46,21.48 93.55,81.31 	"/>
	<circle class="st33" cx="217.46" cy="188.74" r="16.15"/>
	<polygon class="st30" points="301.25,223.61 244.18,206.04 303.77,209.85 	"/>
	<circle class="st33" cx="89.35" cy="188.74" r="16.15"/>
	<polygon class="st30" points="3.04,209.85 62.63,206.04 5.57,223.61 	"/>
	<path class="st33" d="M206.27,248.32l-0.05-0.24l0,0c-0.34-1.51-0.9-4.49-1.54-7.94c-2.1-11.19-3.96-20.74-5.38-24.31
		c-0.07-0.17-0.15-0.33-0.22-0.49l-3.57-10.86l-0.59,5.41c-2.77-2.36-6.26-4.01-9.74-5.5l-20.86-8.93c-1.7-0.73-3.54-1.48-5.45-2.05
		c-0.56-0.17-3.44-1-5.34-0.96c-1.92-0.02-4.78,0.79-5.34,0.95c-1.91,0.57-3.75,1.33-5.45,2.06l-20.86,8.93
		c-3.56,1.52-7.14,3.21-9.93,5.66l-0.61-5.57l-3.97,12.06l0.12,0.01c-1.38,4.03-3.14,13.09-5.11,23.6
		c-0.65,3.44-1.21,6.41-1.54,7.92l-0.05,0.22c-2.02,9.05-4.11,18.41-2.19,28.01c2.04,10.24,11.94,16.49,19.2,20.31l2.05,1.08
		c9.89,5.22,21.1,11.14,32.93,11.61l1.64,0c11.71-0.46,22.92-6.38,32.81-11.6l2.06-1.08c3.79-1.99,8.29-4.65,12.02-8.19
		c0.93-0.78,1.83-1.68,2.68-2.74l-0.07-0.06c2.18-2.67,3.86-5.74,4.57-9.32C210.38,266.72,208.29,257.37,206.27,248.32z
		 M154.28,303.93l-1.43,0c-10-0.4-20.13-5.51-29.18-10.28c0.96,0.05,1.92,0.08,2.85,0.08c3.93,0,7.67-0.44,11.16-1.32
		c3.36-0.85,11.58-3.44,16.13-9.27c4.55,5.84,12.77,8.43,16.13,9.27c3.49,0.88,7.23,1.32,11.16,1.32c0.72,0,1.45-0.02,2.18-0.05
		C174.25,298.45,164.15,303.54,154.28,303.93z M203.18,275.26c-0.71,3.55-2.79,6.57-5.44,9.12c-2.21,1.8-5.07,2.84-9.19,3.43
		c-6.31,0.9-12.13,0.69-17.3-0.61c-5.92-1.49-10.91-4.3-13.32-7.51c0,0-0.1-0.14-0.29-0.54c-0.62-1.32-0.99-2.8-1.13-4.4
		c0.01-0.09,0.02-0.18,0.02-0.27l0.03-5.63c2.08-0.59,4.06-1.69,5.87-2.9c4.91-3.27,9.23-7.59,11.81-12.9
		c1.11-2.28,1.89-4.93,1.1-7.35c-0.09-0.27-0.19-0.52-0.31-0.77c-1.29-2.67-4.32-4.22-7.19-5.21c-9.91-3.42-21.13-3.4-30.71,0.88
		c-1.38,0.62-2.74,1.33-3.82,2.38c-4.06,3.93-1.01,10.25,1.73,14c2.78,3.81,6.37,7,10.36,9.5c1.78,1.11,3.7,2.1,5.73,2.56
		l-0.05,5.29l0,0.08l0,0.08c0,0.08,0.02,0.16,0.02,0.24c-0.13,1.45-0.45,2.82-0.98,4.05c-0.29,0.67-0.44,0.87-0.44,0.88
		c-2.41,3.21-7.39,6.02-13.32,7.51c-5.17,1.3-10.99,1.51-17.3,0.61c-5.48-0.78-8.72-2.36-11.19-5.47l-0.29,0.23
		c-1.82-2.14-3.2-4.56-3.75-7.31c-1.69-8.48,0.27-17.28,2.17-25.78l0.05-0.23c0.36-1.6,0.9-4.47,1.58-8.1
		c1.49-7.95,3.75-19.95,5.09-23.33c1.62-4.08,6.45-6.42,11.24-8.48l20.86-8.93c1.56-0.67,3.23-1.35,4.89-1.85
		c1.2-0.36,2.89-0.73,3.6-0.73c0.02,0,0.05,0,0.07,0l0.12,0.01l0.12-0.01c0.65-0.04,2.43,0.35,3.67,0.73
		c1.66,0.5,3.33,1.18,4.88,1.85l20.86,8.93c4.8,2.05,9.62,4.4,11.24,8.48c1.34,3.38,3.6,15.37,5.09,23.31
		c0.68,3.64,1.23,6.52,1.58,8.12l0.05,0.24C202.91,258,204.88,266.79,203.18,275.26z"/>
	<polygon class="st30" points="49.81,162.82 106.44,53.58 153.22,134.47 200,53.58 256.42,162.46 199.99,75.56 153.22,156.45 
		106.45,75.56 	"/>
	<path class="st33" d="M153.51,335.29c-0.1,0-0.2,0-0.29,0c-2.88,0.07-5.71-0.52-8.35-1.68c-28.57-12.52-54.88-28.03-78.21-46.08
		c-22.03-16.73-41.34-35.72-57.38-56.41c-2.72-3.39-5.37-6.81-7.83-10.13c-0.51-0.69-0.89-1.48-1.14-2.35
		c-0.09-0.26-0.16-0.54-0.21-0.83c-0.19-1.12-0.11-2.29,0.22-3.38l21.29-69.19c-10.12-58.7-10.4-103.12-0.88-139.7
		c0.54-2.08,1.96-3.82,3.88-4.77c1.9-0.94,4.11-1.01,6.07-0.19c30.05,12.67,55.9,30.69,76.82,53.58
		c14.81-3.39,29.93-5.11,44.95-5.12l0.75-0.01l0.82,0.01c14.99,0,30.12,1.73,44.92,5.12c20.92-22.88,46.76-40.91,76.82-53.58
		c1.95-0.82,4.16-0.75,6.07,0.19c1.92,0.95,3.34,2.69,3.88,4.77c9.52,36.58,9.24,81-0.87,139.8l21.28,69.1
		c0.33,1.09,0.41,2.26,0.22,3.39c-0.05,0.29-0.12,0.57-0.21,0.83c-0.25,0.87-0.63,1.66-1.14,2.34c-2.46,3.31-5.11,6.74-7.87,10.18
		c-16,20.64-35.31,39.63-57.36,56.38c-23.3,18.04-49.62,33.54-78.19,46.06C159.02,334.72,156.31,335.29,153.51,335.29z
		 M153.22,327.75l0.07,0c1.8,0.03,3.6-0.32,5.26-1.05c28-12.27,53.78-27.46,76.62-45.14c21.56-16.38,40.4-34.9,56.03-55.07
		c2.72-3.39,5.29-6.71,7.68-9.93l0.01-0.02l-21.26-69.09c-0.34-1.09-0.41-2.27-0.22-3.4c9.91-57.6,10.24-100.96,1.05-136.44
		c-28.98,12.25-53.89,29.65-74.03,51.7c-1.78,1.95-4.49,2.8-7.06,2.2c-14.29-3.28-28.89-4.95-43.38-4.95l-0.79-0.01l-0.72,0.01
		c-14.52,0-29.12,1.67-43.41,4.95c-2.58,0.59-5.28-0.25-7.06-2.21C81.87,37.26,56.96,19.86,27.97,7.61
		c-9.19,35.47-8.85,78.84,1.05,136.44c0.19,1.13,0.12,2.3-0.22,3.4L7.55,216.56c0,0,0,0,0,0c2.39,3.22,4.97,6.54,7.65,9.88
		c15.67,20.22,34.51,38.74,56.04,55.1c22.87,17.7,48.65,32.89,76.65,45.16c1.65,0.73,3.45,1.08,5.26,1.05L153.22,327.75z
		 M7.5,216.48C7.5,216.48,7.5,216.48,7.5,216.48C7.5,216.48,7.5,216.48,7.5,216.48z M299.47,215.28c-0.03,0.05-0.07,0.1-0.1,0.14
		L299.47,215.28z M278.42,7.42L278.42,7.42C278.42,7.42,278.42,7.43,278.42,7.42z"/>
</g>
</svg>
